# xmcd
#
# Track frame offsets:
#	150
#	16087
#	22257
#
# Disc length: 385 seconds
#
# Revision: 1
# Processed by: cddbd v1.5.2PL0 Copyright (c) Steve Scherf et al.
# Submitted via: audiograbber 1.82.01
#
DISCID=1a017f03
DTITLE=Lee Kernaghan - This Is The Outback [Single]
DYEAR=1997
DGENRE=Country
TTITLE0=This Is The Outback
TTITLE1=Twango
TTITLE2=Brown Water
EXTD=
EXTT0=
EXTT1=
EXTT2=
PLAYORDER=
